<svg width="78" height="83" viewBox="0 0 78 83" fill="none" xmlns="http://www.w3.org/2000/svg">
<path d="M46.8587 7.73166L46.0356 6.52572C42.5872 1.4758 35.4129 1.4758 31.9646 6.52572L31.1415 7.73166C29.3207 10.3979 26.2641 11.8257 23.1511 11.4638L19.4809 11.0372C13.9742 10.3972 9.32132 15.2646 9.93318 21.0251L10.341 24.8646C10.6869 28.1211 9.32205 31.3187 6.7733 33.2233L5.62051 34.0844C0.793162 37.6917 0.793162 45.1968 5.62051 48.8042L6.7733 49.6652C9.32205 51.57 10.6869 54.7677 10.341 58.0241L9.93318 61.8635C9.32132 67.6239 13.9742 72.4916 19.4809 71.8513L23.1511 71.4248C26.2641 71.063 29.3207 72.4907 31.1415 75.157L31.9646 76.3626C35.4129 81.4126 42.5872 81.4126 46.0356 76.3626L46.8587 75.157C48.6795 72.4907 51.7363 71.063 54.8492 71.4248L58.5193 71.8513C64.0259 72.4916 68.679 67.6239 68.0669 61.8635L67.6593 58.0241C67.3134 54.7677 68.6782 51.57 71.227 49.6652L72.3794 48.8042C77.2068 45.1968 77.2068 37.6917 72.3794 34.0844L71.227 33.2233C68.6782 31.3187 67.3134 28.1211 67.6593 24.8646L68.0669 21.0251C68.679 15.2646 64.0259 10.3972 58.5193 11.0372L54.8492 11.4638C51.7363 11.8257 48.6795 10.3979 46.8587 7.73166Z" stroke="#E36166" stroke-width="4" stroke-linecap="round" stroke-linejoin="round"/>
<path d="M26 41.4448L33.8629 49.6703C34.2952 50.1225 34.9964 50.1225 35.4287 49.6703L51.9375 32.4004" stroke="#E36166" stroke-width="4" stroke-linecap="round" stroke-linejoin="round"/>
</svg>
